<?xml version="1.0" standalone="no"?>
<!DOCTYPE svg PUBLIC "-//W3C//DTD SVG 20010904//EN"
 "http://www.w3.org/TR/2001/REC-SVG-20010904/DTD/svg10.dtd">
<svg version="1.0" xmlns="http://www.w3.org/2000/svg"
 width="256.000000pt" height="256.000000pt" viewBox="0 0 256.000000 256.000000"
 preserveAspectRatio="xMidYMid meet">

<g transform="translate(0.000000,256.000000) scale(0.100000,-0.100000)"
fill="#000000" stroke="none">
<path d="M1077 2213 c-13 -12 -7 -40 8 -40 21 0 28 27 7 28 -14 0 -14 2 3 9
15 6 16 9 4 9 -9 1 -19 -2 -22 -6z"/>
<path d="M1084 2083 c3 -20 1 -33 -5 -33 -6 0 -7 5 -4 10 3 6 1 10 -4 10 -15
0 -14 -93 1 -108 19 -19 48 -15 48 8 0 39 18 19 65 -73 47 -93 47 -94 31 -125
-16 -32 -33 -45 -23 -18 3 8 0 19 -7 25 -9 8 -19 5 -35 -10 -28 -26 -22 -44
12 -44 15 1 27 -3 27 -7 0 -4 -4 -8 -9 -8 -5 0 -12 -11 -15 -25 -9 -36 -46
-94 -46 -73 0 9 5 20 10 23 15 9 12 27 -2 20 -7 -4 -2 2 11 13 14 11 20 22 13
26 -6 3 -13 0 -16 -6 -4 -7 -4 -3 -2 10 3 17 -1 22 -16 22 -15 0 -19 -5 -15
-20 7 -26 -7 -34 -26 -16 -8 9 -19 11 -27 6 -8 -5 -18 -6 -22 -4 -4 3 -5 -3
-1 -12 4 -11 3 -15 -5 -10 -6 4 -36 -37 -76 -103 -58 -96 -65 -112 -56 -135
10 -27 22 -35 19 -13 -1 6 -1 22 0 35 l1 22 21 -21 c14 -14 19 -28 15 -45 -5
-17 -2 -24 9 -24 8 0 15 -5 15 -11 0 -5 -4 -7 -10 -4 -5 3 -10 1 -10 -4 0 -6
2 -11 4 -11 2 0 11 -2 18 -5 10 -4 22 11 38 45 13 27 25 48 27 46 6 -6 -54
-123 -67 -131 -15 -9 -12 -42 5 -49 8 -3 22 2 31 12 32 31 214 417 220 466 6
43 24 75 24 44 0 -7 9 -2 20 12 l20 25 0 -55 c0 -49 7 -68 61 -165 73 -132
431 -759 494 -865 24 -41 44 -84 44 -94 1 -11 -13 -43 -29 -73 l-30 -53 52 0
c89 0 128 10 128 32 0 11 -4 17 -9 13 -5 -3 -12 -1 -16 5 -4 6 -10 8 -15 5
-14 -9 -32 23 -25 46 5 15 4 19 -4 15 -8 -5 -8 -1 0 17 9 19 7 31 -5 55 -9 17
-16 41 -16 54 0 19 -2 20 -10 8 -6 -9 -10 -10 -10 -3 0 7 -13 34 -30 60 -19
29 -26 49 -20 53 7 4 3 16 -10 31 -12 13 -19 18 -15 12 3 -7 4 -13 1 -13 -10
0 -66 102 -61 111 4 5 1 9 -5 9 -7 0 -10 7 -6 15 3 8 0 14 -7 12 -7 -1 -11 9
-10 27 1 16 -4 41 -12 56 -12 23 -12 27 0 27 8 0 12 -3 10 -7 -2 -3 0 -12 6
-20 6 -11 9 -6 9 18 0 25 -5 35 -22 41 -15 5 -26 4 -30 -3 -4 -6 -8 -7 -8 -1
0 6 -5 3 -11 -5 -9 -13 -10 -12 -5 3 3 10 -9 44 -30 82 -40 72 -51 84 -28 30
8 -19 10 -35 5 -35 -11 0 -91 136 -91 155 0 7 -4 15 -8 17 -5 2 -41 59 -81
128 -95 165 -91 158 -123 217 l-29 51 21 39 c36 67 75 118 94 121 11 3 16 0
12 -7 -4 -6 -2 -11 3 -11 6 0 11 8 11 18 0 11 12 22 32 30 17 6 29 14 26 17
-3 3 -17 0 -32 -6 -20 -9 -29 -10 -38 -1 -14 14 8 45 26 35 8 -4 7 -2 -1 7 -6
7 -9 20 -6 29 7 23 -76 -105 -106 -164 -44 -84 -58 -100 -76 -85 -12 10 -15
10 -15 -1 0 -8 -9 4 -21 25 -12 22 -39 69 -60 104 -21 35 -39 66 -39 68 0 2
-9 18 -21 36 l-21 33 6 -32z m86 -328 c-7 -9 -15 -13 -18 -10 -3 2 1 11 8 20
7 9 15 13 18 10 3 -2 -1 -11 -8 -20z m-210 -235 c0 -5 -4 -10 -10 -10 -5 0
-10 5 -10 10 0 6 5 10 10 10 6 0 10 -4 10 -10z m110 -44 c0 -2 -7 -9 -15 -16
-13 -11 -14 -10 -9 4 5 14 24 23 24 12z m-86 -22 c9 -3 16 -10 16 -15 0 -4 -7
-6 -15 -3 -9 4 -15 0 -15 -7 0 -11 -2 -11 -9 1 -6 8 -7 18 -5 22 6 10 8 10 28
2z m736 -351 c0 -20 -16 -8 -23 17 -4 17 -3 19 9 9 8 -6 14 -18 14 -26z"/>
<path d="M997 1964 c-3 -3 -3 -12 0 -20 3 -9 0 -14 -7 -12 -7 2 -28 -22 -46
-52 -35 -59 -42 -82 -21 -77 7 1 11 -6 9 -18 -2 -18 -1 -18 18 4 11 13 20 31
20 41 0 10 10 31 23 47 41 52 51 75 35 84 -16 10 -23 11 -31 3z m-9 -80 c-11
-11 -18 -12 -22 -5 -4 6 0 14 8 17 9 3 13 11 9 18 -3 6 0 6 8 -2 11 -10 11
-15 -3 -28z"/>
<path d="M1056 1934 c-9 -8 -16 -20 -16 -26 0 -6 1 -9 3 -7 1 2 11 14 21 27
22 25 16 30 -8 6z"/>
<path d="M1085 1930 c-3 -6 1 -7 9 -4 18 7 21 14 7 14 -6 0 -13 -4 -16 -10z"/>
<path d="M1070 1876 c0 -2 8 -10 18 -17 15 -13 16 -12 3 4 -13 16 -21 21 -21
13z"/>
<path d="M1170 1850 c0 -5 7 -10 16 -10 8 0 12 5 9 10 -3 6 -10 10 -16 10 -5
0 -9 -4 -9 -10z"/>
<path d="M1100 1825 c0 -10 -10 -30 -22 -43 l-23 -25 23 14 c23 14 40 54 28
66 -3 4 -6 -2 -6 -12z"/>
<path d="M1140 1820 c-8 -16 -8 -20 3 -20 18 0 39 24 30 33 -11 12 -22 8 -33
-13z"/>
<path d="M966 1785 c-9 -14 -12 -25 -6 -25 6 0 13 7 16 15 4 8 10 15 16 15 5
0 6 -6 2 -12 -5 -10 -4 -10 6 -1 12 11 6 33 -9 33 -5 0 -16 -11 -25 -25z"/>
<path d="M890 1790 c0 -5 5 -10 11 -10 5 0 7 5 4 10 -3 6 -8 10 -11 10 -2 0
-4 -4 -4 -10z"/>
<path d="M791 1639 c-95 -148 -99 -172 -32 -183 47 -7 67 -27 53 -53 -9 -16
-12 -14 -29 15 -22 40 -31 40 -47 2 -7 -17 -15 -28 -18 -25 -3 3 -11 -2 -18
-10 -11 -14 -10 -14 12 -6 18 7 29 6 37 -2 8 -8 11 -8 11 1 0 12 32 17 43 6 3
-4 2 -15 -4 -25 -5 -11 -7 -19 -5 -19 11 0 87 141 81 150 -4 6 -2 9 4 8 7 -2
45 54 86 125 41 70 70 127 65 127 -6 0 -10 -4 -10 -9 0 -18 -32 -41 -57 -41
-22 0 -25 -4 -20 -25 3 -16 0 -24 -7 -22 -6 2 -12 13 -14 23 -3 20 32 44 63
44 8 0 15 9 15 20 0 24 -4 25 -30 3 -11 -10 -25 -18 -30 -18 -10 0 -34 -36
-105 -152 -27 -45 -51 -80 -54 -78 -2 3 21 47 53 98 59 99 65 113 42 104 -10
-4 -13 -1 -9 9 4 11 9 12 19 4 10 -9 16 -4 29 22 11 23 12 28 2 16 -18 -23
-26 -23 -35 1 -6 15 -23 -6 -91 -110z m189 44 c-1 -18 -18 -35 -24 -24 -4 6
-4 16 -1 21 7 12 25 13 25 3z m-86 -158 c-4 -8 -8 -15 -10 -15 -2 0 -4 7 -4
15 0 8 4 15 10 15 5 0 7 -7 4 -15z m-44 -67 c0 -21 -1 -22 -35 -6 -33 15 -32
25 5 25 22 0 30 -5 30 -19z"/>
<path d="M1090 1750 c0 -5 5 -10 11 -10 5 0 7 5 4 10 -3 6 -8 10 -11 10 -2 0
-4 -4 -4 -10z"/>
<path d="M1062 1741 c-11 -7 -11 -9 0 -14 9 -3 15 1 15 9 0 8 -1 14 -1 14 -1
0 -7 -4 -14 -9z"/>
<path d="M1570 1520 c8 -5 20 -10 25 -10 6 0 3 5 -5 10 -8 5 -19 10 -25 10 -5
0 -3 -5 5 -10z"/>
<path d="M1377 1450 c-4 -14 -7 -62 -7 -107 0 -67 3 -83 15 -83 8 0 15 8 15
18 1 15 2 15 16 -3 15 -20 15 -20 11 0 -2 11 -7 27 -11 36 -4 8 -12 49 -19 90
-10 58 -15 68 -20 49z"/>
<path d="M670 1431 c0 -5 5 -13 10 -16 6 -3 10 -2 10 4 0 5 -4 13 -10 16 -5 3
-10 2 -10 -4z"/>
<path d="M866 1423 c-6 -14 -5 -15 5 -6 7 7 10 15 7 18 -3 3 -9 -2 -12 -12z"/>
<path d="M1706 1385 c4 -8 8 -15 10 -15 2 0 4 7 4 15 0 8 -4 15 -10 15 -5 0
-7 -7 -4 -15z"/>
<path d="M821 1350 c-24 -43 -49 -66 -37 -34 5 15 4 16 -5 7 -6 -6 -19 -9 -28
-6 -9 3 0 -5 19 -19 37 -25 67 -21 67 9 0 10 -6 8 -17 -7 -10 -13 -20 -18 -23
-12 -4 5 0 16 9 23 17 14 48 69 42 75 -3 2 -14 -14 -27 -36z"/>
<path d="M1580 1360 c6 -11 13 -20 16 -20 2 0 0 9 -6 20 -6 11 -13 20 -16 20
-2 0 0 -9 6 -20z"/>
<path d="M607 1340 c-10 -16 -18 -33 -17 -37 0 -14 24 -9 44 9 10 10 23 15 28
12 4 -3 8 0 8 5 0 6 -9 11 -20 11 -13 0 -18 5 -14 15 11 27 -11 16 -29 -15z"/>
<path d="M571 1274 c0 -11 3 -14 6 -6 3 7 2 16 -1 19 -3 4 -6 -2 -5 -13z"/>
<path d="M720 1271 c-12 -24 -13 -34 -1 -27 9 6 22 46 15 46 -2 0 -8 -9 -14
-19z"/>
<path d="M789 1230 c-16 -17 -15 -18 6 -16 16 1 21 6 17 19 -2 9 -5 17 -6 16
0 0 -8 -9 -17 -19z"/>
<path d="M1110 1241 c0 -5 15 -9 34 -9 44 0 61 -9 47 -26 -6 -7 -8 -16 -4 -19
3 -4 2 -7 -3 -7 -5 0 -10 -9 -11 -20 -3 -32 17 -23 24 11 4 23 10 29 23 26 13
-3 16 0 13 14 -3 11 -12 19 -20 19 -8 0 -12 4 -9 9 3 4 -17 9 -44 10 -28 0
-50 -3 -50 -8z"/>
<path d="M1046 1225 c-3 -9 1 -18 9 -21 8 -4 12 -10 9 -15 -3 -5 -1 -9 4 -9 5
0 9 13 8 30 -1 32 -20 41 -30 15z"/>
<path d="M850 1220 c0 -5 7 -7 15 -4 8 4 15 8 15 10 0 2 -7 4 -15 4 -8 0 -15
-4 -15 -10z"/>
<path d="M1133 1213 c9 -2 25 -2 35 0 9 3 1 5 -18 5 -19 0 -27 -2 -17 -5z"/>
<path d="M430 1068 c-46 -67 -83 -126 -83 -132 0 -16 202 -393 218 -406 7 -6
52 -14 100 -17 l87 -6 -38 69 -37 69 83 141 83 141 120 7 c66 3 229 6 362 6
l242 0 11 24 c9 19 8 27 -4 36 -8 7 -14 19 -14 26 0 8 -3 14 -7 14 -5 0 -9 14
-10 32 -1 17 -6 34 -11 37 -5 3 -11 14 -15 24 -8 21 -38 19 -45 -1 -3 -11 0
-12 16 -3 18 10 21 7 27 -17 3 -16 1 -39 -4 -53 -9 -23 -10 -23 -10 9 -1 37
-21 35 -21 -2 0 -31 -19 -45 -59 -44 -18 1 -36 -5 -41 -12 -6 -10 -9 -9 -12 1
-4 11 -8 11 -19 3 -24 -19 -149 -24 -189 -7 -36 15 -174 29 -153 15 20 -13 0
-32 -26 -25 -23 6 -23 7 -6 20 17 12 14 13 -25 13 -41 0 -43 -1 -24 -16 18
-15 18 -15 -8 -9 -17 3 -28 1 -28 -5 0 -7 -6 -7 -20 0 -11 6 -18 15 -15 21 4
5 -7 9 -24 9 -16 0 -33 -5 -36 -11 -11 -16 3 -23 19 -10 11 9 15 8 19 -3 4 -9
-3 -16 -19 -20 -13 -4 -23 -10 -23 -14 3 -19 -2 -23 -16 -12 -12 10 -19 4 -42
-35 -68 -113 -124 -197 -130 -191 -3 3 0 14 8 23 11 14 9 14 -11 -2 -14 -11
-28 -24 -32 -30 -4 -6 -13 -2 -22 10 -21 27 -20 34 8 45 13 5 27 14 31 19 8
14 -8 14 -22 0 -15 -15 -63 -3 -63 16 0 7 5 17 10 20 6 4 7 11 4 17 -4 6 1 8
15 3 12 -4 21 -2 21 4 0 6 -6 12 -12 13 -7 0 -17 2 -23 2 -5 1 -16 5 -23 9 -7
5 -21 5 -32 2 -23 -7 -28 10 -5 19 17 6 21 36 5 36 -12 0 -13 43 -1 56 5 5 4
19 -2 34 -10 23 -12 20 -15 -30 -2 -30 -7 -59 -11 -63 -5 -5 -7 19 -5 54 3 35
6 65 8 67 3 2 14 -1 25 -8 17 -9 21 -8 21 5 0 9 5 13 11 10 6 -4 13 2 16 14 3
12 10 18 17 14 6 -3 8 -2 3 2 -4 5 1 17 10 27 16 18 16 19 -5 25 -25 6 -27 14
-10 31 8 8 8 12 1 12 -6 0 -48 -55 -93 -122z m100 63 c0 -5 -7 -12 -16 -15
-14 -5 -15 -4 -4 9 14 17 20 19 20 6z m620 -131 c12 -8 10 -10 -10 -10 -14 0
-32 5 -40 10 -12 8 -10 10 10 10 14 0 32 -5 40 -10z m-736 -76 c9 -3 16 -13
16 -22 0 -14 -1 -14 -12 0 -7 9 -20 18 -28 21 -8 3 -10 6 -3 6 6 1 18 -2 27
-5z m320 -58 c-3 -8 -13 -17 -22 -21 -13 -5 -13 -2 3 15 21 24 26 25 19 6z
m-229 -16 c3 -5 -1 -10 -9 -10 -9 0 -16 5 -16 10 0 6 4 10 9 10 6 0 13 -4 16
-10z m187 -47 c-6 -2 -10 -9 -6 -14 3 -5 -2 -9 -10 -9 -17 0 -21 12 -9 23 3 4
13 7 22 6 11 0 12 -2 3 -6z m-22 -49 c0 -4 -18 -35 -36 -62 -1 -2 -12 1 -23 8
-35 18 -35 -9 -1 -84 40 -89 37 -97 -5 -16 -38 72 -43 101 -20 120 10 9 15 9
15 1 0 -6 5 -11 10 -11 6 0 9 6 8 13 -2 6 3 11 10 10 6 -2 12 6 12 17 0 13 5
18 15 14 8 -4 15 -8 15 -10z"/>
<path d="M555 1166 c4 -33 4 -34 20 -39 11 -5 12 -1 5 18 -11 29 -8 31 14 9 9
-8 16 -11 16 -5 0 21 50 11 72 -14 27 -31 59 -32 84 -2 19 22 19 22 -2 5 -11
-10 -30 -18 -42 -18 -24 0 -47 34 -38 56 3 8 1 14 -4 14 -6 0 -10 -4 -10 -9 0
-5 -20 -9 -45 -9 -25 -1 -45 2 -45 7 0 4 -6 8 -14 8 -7 0 -12 -9 -11 -21z"/>
<path d="M1445 1165 c-3 -8 -7 -23 -10 -32 -3 -9 -1 -19 5 -23 17 -10 1 -60
-16 -53 -8 3 -14 0 -14 -6 0 -6 11 -11 24 -11 21 0 23 4 25 62 1 33 4 65 7 70
3 4 0 8 -6 8 -6 0 -13 -7 -15 -15z"/>
<path d="M1075 1160 c-3 -5 -1 -10 4 -10 6 0 11 5 11 10 0 6 -2 10 -4 10 -3 0
-8 -4 -11 -10z"/>
<path d="M1195 1130 c-3 -5 -1 -10 4 -10 6 0 11 5 11 10 0 6 -2 10 -4 10 -3 0
-8 -4 -11 -10z"/>
<path d="M588 1053 c7 -3 16 -2 19 1 4 3 -2 6 -13 5 -11 0 -14 -3 -6 -6z"/>
<path d="M813 1052 c-13 -2 -31 -14 -41 -27 -13 -16 -23 -21 -33 -14 -8 5 -18
9 -24 8 -5 0 1 -6 14 -13 24 -13 24 -14 3 -20 -11 -4 -22 -17 -24 -29 -2 -12
-10 -21 -17 -19 -8 2 -11 -3 -8 -13 4 -8 2 -15 -3 -15 -5 0 -9 -11 -8 -25 3
-30 2 -30 63 68 49 80 52 82 93 85 23 2 42 6 42 10 0 8 -20 9 -57 4z"/>
<path d="M975 1049 c-20 -4 -4 -7 49 -8 44 0 77 1 75 3 -9 8 -96 12 -124 5z"/>
<path d="M625 1043 c6 -6 26 -13 45 -17 23 -4 31 -3 24 4 -5 5 -25 13 -44 16
-23 4 -32 3 -25 -3z"/>
<path d="M740 1040 c0 -5 5 -10 10 -10 6 0 10 5 10 10 0 6 -4 10 -10 10 -5 0
-10 -4 -10 -10z"/>
<path d="M499 970 c-3 -20 -4 -25 -11 -36 -5 -7 4 -11 24 -11 28 0 29 1 12 14
-11 8 -18 21 -16 29 2 8 0 14 -3 14 -3 0 -6 -4 -6 -10z"/>
<path d="M2110 970 c0 -5 5 -10 11 -10 5 0 7 5 4 10 -3 6 -8 10 -11 10 -2 0
-4 -4 -4 -10z"/>
<path d="M291 881 c-6 -11 -11 -26 -11 -35 0 -8 -7 -21 -15 -30 -19 -19 -139
-246 -130 -246 3 0 -3 -12 -14 -26 -11 -15 -18 -31 -14 -37 3 -6 1 -7 -5 -3
-7 4 -12 2 -12 -3 0 -6 -1 -14 -2 -18 -6 -17 95 -20 277 -11 105 6 191 12 193
13 7 6 -82 157 -99 165 -15 8 -17 7 -13 -5 5 -11 2 -13 -9 -9 -19 7 -78 -26
-70 -39 9 -14 -38 3 -68 26 -17 12 -25 25 -22 35 5 13 8 12 20 -4 12 -17 13
-17 13 2 0 16 2 17 10 4 8 -12 10 -10 10 8 0 13 4 21 9 18 5 -4 16 13 23 36
l14 42 23 -37 c12 -20 24 -37 26 -37 9 0 -38 127 -50 136 -8 6 -12 14 -8 18 4
4 0 4 -9 1 -11 -4 -18 0 -22 13 -4 11 -13 25 -21 32 -11 9 -16 7 -24 -9z m-44
-218 c-3 -10 -5 -4 -5 12 0 17 2 24 5 18 2 -7 2 -21 0 -30z m233 -83 c25 -48
26 -68 5 -50 -9 7 -14 15 -11 17 2 3 -2 20 -10 39 -20 47 -9 43 16 -6z m-164
8 c4 -7 3 -8 -4 -4 -7 4 -12 2 -12 -5 0 -7 -3 -10 -6 -6 -6 5 3 27 11 27 2 0
7 -5 11 -12z"/>
<path d="M2076 875 c-9 -26 -7 -32 5 -12 6 10 9 21 6 23 -2 3 -7 -2 -11 -11z"/>
<path d="M1920 870 c0 -5 5 -10 11 -10 5 0 7 5 4 10 -3 6 -8 10 -11 10 -2 0
-4 -4 -4 -10z"/>
<path d="M650 830 c-6 -11 -8 -20 -6 -20 3 0 10 9 16 20 6 11 8 20 6 20 -3 0
-10 -9 -16 -20z"/>
<path d="M2119 747 c-15 -19 -18 -20 -34 -7 -17 14 -17 13 -11 -10 4 -14 10
-33 12 -42 3 -10 0 -26 -6 -38 -6 -11 -8 -20 -6 -20 6 0 36 55 36 65 0 3 -6 3
-12 0 -7 -4 -2 3 12 14 14 11 21 21 15 21 -5 0 -4 4 4 9 7 5 12 13 10 19 -2 5
-11 0 -20 -11z"/>
<path d="M1965 690 c-3 -5 -1 -10 4 -10 6 0 11 5 11 10 0 6 -2 10 -4 10 -3 0
-8 -4 -11 -10z"/>
<path d="M2057 613 c-4 -3 -7 -11 -7 -17 0 -6 5 -5 12 2 6 6 9 14 7 17 -3 3
-9 2 -12 -2z"/>
<path d="M2053 483 c9 -2 23 -2 30 0 6 3 -1 5 -18 5 -16 0 -22 -2 -12 -5z"/>
</g>
</svg>
